<?xml version="1.0" encoding="UTF-8"?>
<svg xmlns="http://www.w3.org/2000/svg" viewBox="0 0 842.89 596.28">
  <defs>
    <style>
      .cls-1 {
        fill: none;
        stroke: #fff;
        stroke-width: 5px;
      }

      .cls-1, .cls-2, .cls-3 {
        stroke-miterlimit: 10;
      }

      .cls-2 {
        fill: #fff;
      }

      .cls-2, .cls-3 {
        stroke: #231f20;
      }

      .cls-3 {
        fill: #231f20;
      }
    </style>
  </defs>
  <g id="Layer_1" data-name="Layer 1">
    <rect class="cls-3" x=".5" y=".5" width="841.89" height="595.28"/>
    <path class="cls-2" d="M461.87,411.4c-4.05-5.66-25.21-34.05-64.88-40.84-43.12-7.37-74.47,16.53-79.38,20.41,20.19-21.43,27.61-51.73,19.09-79.1-9.81-31.55-39.21-54.1-73.55-56.04,35.17,2.15,68.02-14.85,84.24-43.74,18.17-32.37,7.46-65.44,5.57-70.97,1.8,4.04,18.72,40.43,59.57,49.59,30.89,6.92,63.56-4.38,84.69-29.16-28.25,25.87-35,66.75-17.6,97.22,14.07,24.64,42.11,39.27,72.05,37.92-41.34-8.38-80.93,11.05-95.38,43.74-14.88,33.65,3.28,66.91,5.58,70.97Z"/>
  </g>
  <g id="estrella">
    <path class="cls-1" d="M481.67,439.96c-5.26-6.97-32.68-41.93-81.36-52.33-52.9-11.31-89.63,15.22-95.37,19.53,23.3-24.25,30.53-59.8,18.55-92.79-13.81-38.04-50.92-66.56-92.81-70.9,42.91,4.63,81.88-13.61,99.9-46.95,20.19-37.36,5.2-77.26,2.57-83.94,2.43,4.91,25.16,49.12,75.42,62.41,37.99,10.05,77.07-1.44,101.31-29.61-32.85,29.05-38.63,77.19-15.66,114.4,18.58,30.1,53.56,49.12,89.91,49.3-50.79-12.4-97.81,8.33-113.46,46.29-16.11,39.08,7.95,79.65,10.99,84.6Z"/>
  </g>
</svg>